<svg aria-hidden="true" style="position: absolute; width: 0; height: 0; overflow: hidden;" version="1.1" xmlns="http://www.w3.org/2000/svg" xmlns:xlink="http://www.w3.org/1999/xlink">
<defs>
<symbol id="icon-instagram" viewBox="0 0 31 32">
<path fill="#c67a88" style="fill: var(--color1, #c67a88)" d="M15.333 3.428c4.097 0 4.582 0.018 6.193 0.090 1.497 0.066 2.306 0.317 2.845 0.527 0.713 0.276 1.228 0.611 1.761 1.144 0.539 0.539 0.869 1.048 1.144 1.761 0.21 0.539 0.461 1.354 0.527 2.845 0.072 1.617 0.090 2.102 0.090 6.193 0 4.097-0.018 4.582-0.090 6.193-0.066 1.497-0.317 2.306-0.527 2.845-0.275 0.713-0.611 1.228-1.144 1.761-0.539 0.539-1.048 0.869-1.761 1.144-0.539 0.21-1.354 0.461-2.845 0.527-1.617 0.072-2.102 0.090-6.193 0.090-4.097 0-4.582-0.018-6.193-0.090-1.497-0.066-2.306-0.317-2.845-0.527-0.713-0.275-1.228-0.611-1.761-1.144-0.539-0.539-0.869-1.048-1.144-1.761-0.21-0.539-0.461-1.354-0.527-2.845-0.072-1.617-0.090-2.102-0.090-6.193 0-4.097 0.018-4.582 0.090-6.193 0.066-1.497 0.317-2.306 0.527-2.845 0.276-0.713 0.611-1.228 1.144-1.761 0.539-0.539 1.048-0.869 1.761-1.144 0.539-0.21 1.354-0.461 2.845-0.527 1.611-0.072 2.096-0.090 6.193-0.090zM15.333 0.667c-4.163 0-4.684 0.018-6.319 0.090-1.629 0.072-2.749 0.335-3.72 0.713-1.012 0.395-1.869 0.916-2.719 1.773-0.857 0.851-1.378 1.707-1.773 2.713-0.377 0.976-0.641 2.090-0.713 3.72-0.072 1.641-0.090 2.162-0.090 6.325s0.018 4.684 0.090 6.319c0.072 1.629 0.335 2.749 0.713 3.719 0.395 1.012 0.916 1.869 1.773 2.719 0.851 0.85 1.707 1.378 2.713 1.767 0.976 0.377 2.090 0.641 3.72 0.713 1.635 0.072 2.156 0.090 6.319 0.090s4.684-0.018 6.319-0.090c1.629-0.072 2.749-0.335 3.719-0.713 1.006-0.389 1.863-0.917 2.713-1.767s1.378-1.707 1.767-2.713c0.377-0.976 0.641-2.090 0.713-3.719 0.072-1.635 0.090-2.156 0.090-6.319s-0.018-4.684-0.090-6.319c-0.072-1.629-0.335-2.749-0.713-3.72-0.377-1.018-0.899-1.875-1.755-2.725-0.851-0.851-1.707-1.378-2.713-1.767-0.976-0.377-2.090-0.641-3.719-0.713-1.641-0.078-2.162-0.096-6.325-0.096z"></path>
<path fill="#c67a88" style="fill: var(--color1, #c67a88)" d="M15.333 8.124c-4.348 0-7.876 3.528-7.876 7.876s3.528 7.876 7.876 7.876c4.348 0 7.876-3.528 7.876-7.876s-3.528-7.876-7.876-7.876zM15.333 21.109c-2.821 0-5.109-2.288-5.109-5.109s2.288-5.109 5.109-5.109c2.821 0 5.109 2.288 5.109 5.109s-2.288 5.109-5.109 5.109z"></path>
<path fill="#c67a88" style="fill: var(--color1, #c67a88)" d="M25.36 7.812c0 1.018-0.827 1.839-1.839 1.839-1.018 0-1.839-0.827-1.839-1.839 0-1.018 0.827-1.839 1.839-1.839s1.839 0.827 1.839 1.839z"></path>
</symbol>
<symbol id="icon-mail" viewBox="0 0 31 32">
<path fill="#c67a88" style="fill: var(--color1, #c67a88)" d="M30.208 7.091c0-1.633-1.336-2.97-2.97-2.97h-23.757c-1.633 0-2.97 1.336-2.97 2.97v17.818c0 1.633 1.336 2.969 2.97 2.969h23.757c1.633 0 2.97-1.336 2.97-2.969v-17.818zM27.238 7.091l-11.878 7.424-11.878-7.424h23.757zM27.238 24.909h-23.757v-14.848l11.878 7.424 11.878-7.424v14.848z"></path>
</symbol>
<symbol id="icon-facebook" viewBox="0 0 31 32">
<path fill="#c67a88" style="fill: var(--color1, #c67a88)" d="M29.685 15.482c0-8.197-6.645-14.842-14.843-14.842s-14.842 6.645-14.842 14.842c0 7.408 5.428 13.549 12.523 14.663v-10.372h-3.769v-4.291h3.769v-3.27c0-3.72 2.216-5.775 5.606-5.775 1.623 0 3.323 0.29 3.323 0.29v3.653h-1.872c-1.844 0-2.419 1.144-2.419 2.319v2.783h4.116l-0.658 4.291h-3.459v10.372c7.096-1.114 12.524-7.254 12.524-14.663z"></path>
</symbol>
<symbol id="icon-IMAGE" viewBox="0 0 268 32">
<path fill="#d27487" style="fill: var(--color2, #d27487)" d="M0.662 30.89v-29.892h6.215v24.753h14.873v5.139h-21.088z"></path>
<path fill="#d27487" style="fill: var(--color2, #d27487)" d="M30.253 24.552v-5.139h17.273v5.139h-17.273zM33.897 0.999h9.215l8.144 29.892h-6.343l-4.629-17.901-1.8-7.494-1.8 7.494-4.715 17.901h-6.172l8.101-29.892z"></path>
<path fill="#d27487" style="fill: var(--color2, #d27487)" d="M62.36 30.89v-24.753h-9.044v-5.139h24.302v5.139h-9.044v24.753h-6.215z"></path>
<path fill="#d27487" style="fill: var(--color2, #d27487)" d="M90.236 30.89v-24.753h-9.044v-5.139h24.303v5.139h-9.044v24.753h-6.215z"></path>
<path fill="#d27487" style="fill: var(--color2, #d27487)" d="M110.57 30.89v-29.892h21.944v5.139h-15.687v6.723h10.372v5.139h-10.372v7.751h15.858v5.139h-22.116z"></path>
<path fill="#d27487" style="fill: var(--color2, #d27487)" d="M174.641 31.404c-2.686 0-5.001-0.642-6.944-1.927s-3.442-3.083-4.5-5.396c-1.057-2.341-1.585-5.053-1.585-8.137 0-3.14 0.542-5.867 1.628-8.18s2.614-4.097 4.587-5.353c2-1.285 4.343-1.927 7.028-1.927 2.115 0 4.058 0.414 5.83 1.242s3.215 2.027 4.329 3.597c1.143 1.542 1.786 3.412 1.93 5.61h-6.815c-0.173-1.599-0.715-2.883-1.629-3.854s-2.129-1.456-3.644-1.456c-1.314 0-2.485 0.4-3.513 1.199-1.030 0.799-1.843 1.97-2.444 3.512-0.572 1.542-0.858 3.412-0.858 5.61s0.286 4.068 0.858 5.61c0.571 1.542 1.343 2.712 2.315 3.512 1 0.799 2.143 1.199 3.429 1.199 1.057 0 1.986-0.214 2.786-0.642 0.799-0.457 1.442-1.099 1.929-1.927 0.514-0.828 0.828-1.813 0.943-2.955h6.772c-0.201 2.17-0.829 4.054-1.886 5.653s-2.472 2.841-4.243 3.726c-1.772 0.856-3.871 1.285-6.3 1.285z"></path>
<path fill="#d27487" style="fill: var(--color2, #d27487)" d="M193.858 24.552v-5.139h17.273v5.139h-17.273zM197.502 0.999h9.215l8.143 29.892h-6.344l-4.629-17.901-1.799-7.494-1.801 7.494-4.716 17.901h-6.172l8.102-29.892z"></path>
<path fill="#d27487" style="fill: var(--color2, #d27487)" d="M218.993 30.89v-29.892h22.245v5.139h-16.030v6.723h10.714v5.139h-10.714v12.89h-6.215z"></path>
<path fill="#d27487" style="fill: var(--color2, #d27487)" d="M245.384 30.89v-29.892h21.945v5.139h-15.687v6.723h10.373v5.139h-10.373v7.751h15.859v5.139h-22.118z"></path>
</symbol>
</defs>
</svg>
